<?xml version="1.0" encoding="utf-8"?>
<!-- Generator: Adobe Illustrator 18.1.1, SVG Export Plug-In . SVG Version: 6.00 Build 0)  -->
<svg version="1.1" id="Capa_1" xmlns="http://www.w3.org/2000/svg" xmlns:xlink="http://www.w3.org/1999/xlink" x="0px" y="0px"
	 viewBox="0 0 302.5 302" enable-background="new 0 0 302.5 302" xml:space="preserve">
<ellipse opacity="0.7" fill="#006633" cx="151.2" cy="152.5" rx="120.3" ry="126.3"/>
<g opacity="0.6">
	<ellipse opacity="0.7" fill="#006633" cx="151.2" cy="152.5" rx="120.3" ry="126.3"/>
	<line fill="none" stroke="#BE1622" stroke-width="3" stroke-miterlimit="10" x1="150.9" y1="2.4" x2="150.9" y2="298.5"/>
	<line fill="none" stroke="#BE1622" stroke-width="3" stroke-miterlimit="10" x1="299" y1="153.8" x2="2.9" y2="153.8"/>
	<circle fill="none" stroke="#BE1622" stroke-width="3" stroke-miterlimit="10" cx="150.9" cy="153.8" r="30.6"/>
	<circle fill="none" stroke="#BE1622" stroke-width="3" stroke-miterlimit="10" cx="150.9" cy="153.9" r="61"/>
</g>
<g opacity="0.8">
	<line fill="none" stroke="#BE1622" stroke-width="3" stroke-miterlimit="10" x1="151.3" y1="2.4" x2="151.3" y2="298.5"/>
	<line fill="none" stroke="#BE1622" stroke-width="3" stroke-miterlimit="10" x1="299.3" y1="153.8" x2="3.2" y2="153.8"/>
	<circle fill="none" stroke="#BE1622" stroke-width="3" stroke-miterlimit="10" cx="151.2" cy="153.8" r="30.6"/>
	<circle fill="none" stroke="#BE1622" stroke-width="3" stroke-miterlimit="10" cx="151.3" cy="153.9" r="61"/>
</g>
<path opacity="0.9" d="M129.7,125.7l-0.2,0.2h0.2v14.3h-6.2L92.6,55.4h18.3l18.8,51.6V125.7z M103.7,59.2h2.4l-0.6-0.9v-0.6l0.3-1.5
	h-0.3l-0.3,0.3l-3.6,1.5v0.3L103.7,59.2z M106,70.3l0.6-0.6v-0.3H106l-0.3,0.3v0.6H106z M108.1,76.1l-0.9-0.4h-0.3l0.6,0.9
	L108.1,76.1z M110.2,80.8v-0.7h-0.6l-0.7,0.7H110.2z M111.3,86.7l0.3-1.2l-0.9-0.3l-0.7,0.9L111.3,86.7z M111.9,90.9l-0.6-0.6H111
	v0.6H111.9z M114.3,87.9v-0.6h-0.9l-0.6,0.6H114.3z M115,99.5l-0.3-1.5h-1.5v0.3c0.8,0,1.2,0.3,1.2,0.9v0.6l-0.7,0.9v0.3
	C114.1,100.9,114.6,100.4,115,99.5z M114.9,92.2v-0.6c-0.6,0-0.9-0.2-0.9-0.7h-0.7v0.3L114.9,92.2z M119,110c0-0.4,0.3-0.6,0.9-0.6
	v-0.3h-0.7v-0.4l0.3-1.5c1.2-0.4,1.8-0.8,1.8-1.2v-0.4l-1.2,0.4H120l-0.4-0.4c0-0.8-0.2-1.2-0.6-1.2v-1.8h-0.3l-0.3,1.5l-1.5-0.3
	h-0.3l-0.7,0.6v0.3l0.7,1.5h0.9l1.5,0.3v0.6l-0.9,0.9l0.3,1.8H119z M117.4,95v-0.6h-0.9V95H117.4z M118.4,115.4v-1.2l-0.6,0.6v0.7
	H118.4z M119.3,89.4l0.6-0.6v-0.3l-0.3-0.3l-0.7,0.6v0.6H119.3z M122.3,99.1c-1-0.7-1.5-1.5-1.5-2.4h-0.6c0,0.8-0.4,1.2-1.2,1.2v0.3
	C119,98.6,120.1,98.9,122.3,99.1z M120.3,113.6l0.3-0.9v-0.3h-0.9v1.2H120.3z M121.2,102.1l0.3-0.9h-0.3l-0.3-0.3H120L121.2,102.1z
	 M123.2,121.6v-1.4c-1.5,0-2.3-0.5-2.4-1.4h-0.3v0.4C120.5,120.1,121.4,120.9,123.2,121.6z M125,114.2l0.3-0.3
	c0-0.6,0.3-0.9,0.9-0.9v-0.7c-1.4,0.7-2.1,1.2-2.1,1.5v0.3H125z M126.4,132.8l-0.3-1.4h-0.9l0.4,1.4H126.4z M125.8,127.7
	c0.3,1,0.6,1.5,0.9,1.5c0-1.1,0.5-2,1.5-2.7v-1.2l-3,2.1v0.3H125.8z M128.3,118.9h0.3v-0.6c-1.4-0.4-2.1-1-2.1-1.8h-0.9v1.2l0.9-0.3
	L128.3,118.9z M126.8,111.7v-0.3l0.4-0.3h-1.2v0.3L126.8,111.7z M128.9,115.6c0-0.3-0.4-0.6-1.2-0.9v0.6L128.9,115.6z M161.3,81.3
	l9.3,25.6v18.7l-0.2,0.2h0.2v14.3h-6.2l-12.3-33.7l-12.3,33.8h-6.4v-4.7l1.7,0.7l0.3,0.3h0.3l-0.3-1.5v-0.6l0.6-0.9h-2.4l-0.2,0.1
	v-26l9.6-26.3H161.3z M135.6,122.3v0.6l0.3,0.3h0.6v-0.3l-0.6-0.6H135.6z M137.4,116l-0.6,0.9h0.3l0.9-0.4L137.4,116z M138.8,111.8
	l0.7,0.7h0.6v-0.7H138.8z M140,106.5l0.7,0.9l0.9-0.3l-0.3-1.2L140,106.5z M140.9,101.7v0.6h0.3l0.6-0.6H140.9z M142.7,104.7
	l0.6,0.6h0.9v-0.6H142.7z M143.6,91.6v0.3l0.7,0.9v0.6c0,0.6-0.4,0.9-1.2,0.9v0.3h1.5l0.3-1.5C144.5,92.2,144.1,91.7,143.6,91.6z
	 M143.3,101.4v0.3h0.7c0-0.4,0.3-0.7,0.9-0.7v-0.6L143.3,101.4z M147.4,102v-2.4l-0.9,0.6h-0.6l-1.5-0.3v0.3l0.3,0.3l1.5,3.6h0.3
	L147.4,102z M146.2,91.7h0.4c0-0.6,0.4-1.2,1.2-1.8v-0.3l-0.9-0.9l-1.5,0.9v0.3C145.9,90.5,146.2,91.1,146.2,91.7z M146.4,97.7v0.6
	h0.9v-0.6H146.4z M147.8,83.5c0.8,0,1.2,0.2,1.2,0.6l-0.3,0.9l0.3,0.3h0.9c0-0.6,0.3-0.9,0.9-0.9V84c-1,0-1.5-0.5-1.5-1.5v-0.9
	C148.5,82,148,82.6,147.8,83.5z M148.8,103.2v0.6l0.7,0.6l0.3-0.3v-0.3l-0.6-0.6H148.8z M151.3,86.3c-0.1-0.1-0.2-0.2-0.3-0.2
	l-0.1,0.1L151.3,86.3z M154.7,87.1v-0.6l-0.6-0.6v0.6L154.7,87.1z M155.2,98l-0.2,0.6c0.2,0.1,0.2,0.3,0.2,0.6v0.6l-0.7,0.9v0.3
	c0.4-0.1,0.8-0.6,1.2-1.5l-0.3-1.5H155.2z M157.4,89.7l0.6-0.2c-0.6-1.5-1.1-2.4-1.7-2.7l-0.3,0.3C156.8,87.9,157.3,88.8,157.4,89.7
	z M159.9,110c0-0.4,0.3-0.6,0.9-0.6v-0.3h-0.7v-0.4l0.3-1.5c1.2-0.4,1.8-0.8,1.8-1.2v-0.4l-1.2,0.4h-0.3l-0.4-0.4
	c0-0.8-0.2-1.2-0.6-1.2v-1.8h-0.3l-0.3,1.5l-1.5-0.3h-0.3l-0.7,0.6v0.3l0.7,1.5h0.9l1.5,0.3v0.6l-0.9,0.9l0.3,1.8H159.9z M158.2,95
	v-0.6h-0.9V95H158.2z M158.5,99.6l-0.8-0.3v0.4l0.3,0.3h0.6L158.5,99.6L158.5,99.6z M158.3,85.3h0.6c0,0.6,0.2,0.9,0.6,0.9v-0.9
	l-0.9-0.3h-0.3V85.3z M159.3,115.4v-1.2l-0.6,0.6v0.7H159.3z M160.1,88.3v-0.9l-0.7-0.6v0.9L160.1,88.3z M160.1,89.4l0.6-0.6v-0.3
	l-0.3-0.3l-0.7,0.6v0.6H160.1z M163.2,99.1c-1-0.7-1.5-1.5-1.5-2.4h-0.6c0,0.8-0.4,1.2-1.2,1.2v0.3C159.9,98.6,161,98.9,163.2,99.1z
	 M161.1,113.6l0.3-0.9v-0.3h-0.9v1.2H161.1z M162,102.1l0.3-0.9H162l-0.3-0.3h-0.9L162,102.1z M164,121.6v-1.4
	c-1.5,0-2.3-0.5-2.4-1.4h-0.3v0.4C161.3,120.1,162.2,120.9,164,121.6z M165.9,114.2l0.3-0.3c0-0.6,0.3-0.9,0.9-0.9v-0.7
	c-1.4,0.7-2.1,1.2-2.1,1.5v0.3H165.9z M167.3,132.8l-0.3-1.4H166l0.4,1.4H167.3z M166.7,127.7c0.3,1,0.6,1.5,0.9,1.5
	c0-1.1,0.5-2,1.5-2.7v-1.2l-3,2.1v0.3H166.7z M169.2,118.9h0.3v-0.6c-1.4-0.4-2.1-1-2.1-1.8h-0.9v1.2l0.9-0.3L169.2,118.9z
	 M167.6,111.7v-0.3l0.4-0.3h-1.2v0.3L167.6,111.7z M169.8,115.6c0-0.3-0.4-0.6-1.2-0.9v0.6L169.8,115.6z M174.2,135.5l1.7,0.7
	l0.3,0.3h0.3l-0.3-1.5v-0.6l0.6-0.9h-2.4l-0.2,0.1v-26l19-52.1h18.3l-30.9,84.7h-6.4V135.5z M176.5,122.3v0.6l0.3,0.3h0.6v-0.3
	l-0.6-0.6H176.5z M178.3,116l-0.6,0.9h0.3l0.9-0.4L178.3,116z M179.7,111.8l0.7,0.7h0.6v-0.7H179.7z M180.8,106.5l0.7,0.9l0.9-0.3
	l-0.3-1.2L180.8,106.5z M181.8,101.7v0.6h0.3l0.6-0.6H181.8z M183.6,104.7l0.6,0.6h0.9v-0.6H183.6z M184.5,91.6v0.3l0.7,0.9v0.6
	c0,0.6-0.4,0.9-1.2,0.9v0.3h1.5l0.3-1.5C185.3,92.2,184.9,91.7,184.5,91.6z M184.1,101.4v0.3h0.7c0-0.4,0.3-0.7,0.9-0.7v-0.6
	L184.1,101.4z M189.2,82.7l-0.3,1.8l0.9,0.9V86l-1.5,0.3h-0.9l-0.7,1.5v0.3l0.7,0.6h0.3l1.5-0.3l0.3,1.5h0.3v-1.8
	c0.4,0,0.6-0.4,0.6-1.2l0.4-0.4h0.3l1.2,0.4v-0.4c0-0.4-0.6-0.8-1.8-1.2l-0.3-1.5v-0.4h0.7v-0.3c-0.6,0-0.9-0.2-0.9-0.6H189.2z
	 M187.2,97.7v0.6h0.9v-0.6H187.2z M188.6,77.2v0.7l0.6,0.6v-1.2H188.6z M189.7,103.2v0.6l0.7,0.6l0.3-0.3v-0.3l-0.6-0.6H189.7z
	 M189.8,94.5v0.3c0.8,0,1.2,0.4,1.2,1.2h0.6c0-0.9,0.5-1.7,1.5-2.4C190.9,93.8,189.8,94.1,189.8,94.5z M190.4,79.1v1.2h0.9V80
	l-0.3-0.9H190.4z M190.8,91.7h0.9l0.3-0.3h0.3l-0.3-0.9L190.8,91.7z M191.2,73.5v0.4h0.3c0.1-0.9,0.9-1.4,2.4-1.4V71
	C192.1,71.7,191.2,72.6,191.2,73.5z M193.8,91.7V92c0,0.3,0.7,0.8,2.1,1.5v-0.7c-0.6,0-0.9-0.3-0.9-0.9l-0.3-0.3H193.8z M195.2,73.1
	l-0.4,1.4h0.9l0.3-1.4H195.2z M194.9,78.2v0.3l3,2.1v-1.2c-1-0.7-1.5-1.6-1.5-2.7c-0.3,0-0.6,0.5-0.9,1.5H194.9z M196.1,88.4
	l-0.9-0.3v1.2h0.9c0-0.8,0.7-1.4,2.1-1.8v-0.6H198L196.1,88.4z M195.6,94.5v0.3h1.2l-0.4-0.3v-0.3L195.6,94.5z M195.7,58v0.4
	c0.6,0,1.2,0.4,1.8,1.2h0.3l0.9-0.9l-0.9-1.5h-0.3C196.9,57.7,196.3,58,195.7,58z M197,69.3l0.6,0.7c1.8-0.6,2.8-1.2,3-1.8l-0.3-0.3
	C199.3,68.8,198.2,69.3,197,69.3z M197.4,90.6v0.6c0.8-0.3,1.2-0.6,1.2-0.9L197.4,90.6z M199.1,71.9h0.9l0.6-0.7h-0.9L199.1,71.9z
	 M200.3,66.5h0.6l0.6-0.6h-0.6L200.3,66.5z M202.1,70.1v0.6c-0.6,0-0.9,0.2-0.9,0.6h0.9l0.3-0.9v-0.3H202.1z M204,59.6
	c0,0.8-0.2,1.2-0.6,1.2l-0.9-0.3l-0.3,0.3v0.9c0.6,0,0.9,0.3,0.9,0.9h0.3c0-1,0.5-1.5,1.5-1.5h0.9C205.4,60.3,204.8,59.8,204,59.6z"
	/>
<path opacity="0.9" d="M131.3,231.4l0.3,0.3v0.3l-0.7,1v0.3c0.9,0,1.4,1.1,1.4,3.3c1,2.3,2,4,3.3,5.3v0.3l-0.3-0.3h-0.3v0.6h0.3
	l0.3-0.3c4.2,2.4,7.2,3.7,9.2,4v1h0.7v-0.7h2c1.3,0.1,2,0.5,2,1v2.6c0,0.4-0.3,0.6-1,0.6l-0.3-0.3h-0.6v0.3c0.9,0.1,1.3,0.7,1.3,1.7
	l-1,1.6c0.7,0,1,0.2,1,0.7v0.6l-0.3,1.6l-0.3-0.3h-0.3l-0.3,0.3v1.4c1,0,1.6,0.4,2,1.3v2c0,0.5-0.5,0.7-1.4,0.7l1,1.3l-0.7,0.7h-1.6
	c0-0.5-0.8-1.4-2.3-2.6V261h-2v0.3h1v1.7h-2.6c-1.1-1.8-1.9-2.6-2.3-2.6l-0.3,0.3v0.3c0.6,0,1,0.7,1,2h-0.3l-1.4,0.3
	c-4.4-0.5-8.7-2-12.8-4.5c0.4-1.5,0.9-2.3,1.7-2.3v-1c-1.2,0.2-2.2,0.7-3,1.6h-1.3c-4.9-3.6-8.4-8.6-10.3-15.1l-0.6-4l0.6-0.6v-0.3
	l-0.3,0.3h-0.3c-0.5-1-0.7-2.4-0.7-4.3l0.7-0.7h0.3l0.3,0.3l0.3-0.3h1l2,0.3l2-0.7h4.6v1h0.3c0.1-0.9,0.4-1.4,1-1.4h5.9L131.3,231.4
	z M111.9,234.3v2.3h0.3c0-0.5,0.3-0.7,1-0.7v-0.3l-0.7-1.4H111.9z M149.1,166.9l0.3,0.3v16.1c0,0.5-2.6,1-7.9,1.4
	c0.2-0.8,1-1.4,2.3-1.7l1.4,0.3h0.6v-0.6h-3.6v0.6h-2.3l0.3,1.6c-3.3,2.4-5,4.2-5,5.6l-0.3,1.6v2c0,4.5,5.6,7.7,16.8,9.6l0.3,0.3
	l-0.3,0.3v0.7l1.3-1c11.4,2.4,19.5,5,24.3,7.6l6,5v0.3h-1v-0.6c-0.9,0-1.3-0.5-1.3-1.4h-1.4l2.3,2l0.3,2h-0.7v0.7h0.3l1-0.3l-1,2.3
	h3c0,0.7,0.3,1,1,1c0,0.6,0.5,1.5,1.4,2.6c1.1,0.4,1.6,1.4,1.6,3l-1,0.7h-3.3c0,0.4-0.5,0.8-1.6,1.3h-2.3v0.7c1,0,1.8,0.2,2.3,0.7
	c0-0.5,0.4-0.7,1.3-0.7l1-1c0.3,1.1,0.6,1.7,1,1.7l0.3-0.3l0.3,0.3c0-1.5,0.7-2.3,2-2.3l0.3,0.3v2.3l-0.3,0.3c0,0.5-0.7,0.7-2,0.7
	c0,1.1-0.2,1.6-0.7,1.6c-0.9,0-1.3,0.5-1.3,1.6h-2.6v0.3l0.3,1.6h0.3v-0.6l-0.3-0.3l2.6-1h1.6v0.7h0.7l1.3-0.7v-2h0.7
	c-0.2,3.9-0.7,7.1-1.4,9.6l-0.3-0.3h-0.6v0.3h0.6c-0.3,2.6-0.9,3.9-2,3.9l-1-0.3v0.7l1.3,0.3c-0.5,1.3-1.4,2.6-2.6,3.9l-0.3-0.3
	h-0.3c0,1.4-0.7,2.5-2,3.3l-0.3-0.3h-0.3l0.7-2.3l-3.7-3h0.7v-0.3l-0.7-0.7l-1.6,0.3v-2.9c0-0.5,0.5-0.9,1.4-1v-0.3
	c0-0.5-0.9-0.8-2.6-1l0.7,1v2.3h-0.3l-1-0.3l0.7,1v0.7l-1.4,1.3l-0.3-0.3l-0.3,0.3h-0.7l-0.3-0.3h-0.3c0-1.5,0.7-2.3,2-2.3v-0.3
	l-2-1.3h-2l0.3,0.3v0.3l-0.7,0.6c-1.6,0-2.4-0.3-2.6-1l0.3-0.3l-0.7-0.7c0-0.9,0.9-1.3,2.6-1.3l0.3-0.3v-0.3c-1,0-1.6-0.5-2-1.6
	c0.9-1.5,1.4-3.5,1.4-5.9l1.6,0.3c0.5-1.1,0.9-1.7,1.3-1.7v-0.3l-0.6-0.7h-1l-1,0.7h-0.3l-2.3-3V230h0.3l2.3,0.3c0-0.7,0.4-1,1.3-1
	V229l0.3,0.3h1.3l0.7-0.6V228c-1.2,0-2.1-0.4-2.6-1.3h-1l-1,0.6h-5l-1-0.6l-1.3,0.3c-1.5-0.5-2.3-1-2.3-1.4v-0.3
	c0.5,0,1.2-0.4,2-1.3c-1.1-1-2.5-1.5-4.3-1.6v0.3l-2-0.7l-0.3,0.3l-3.3-3.9c-0.5,1.3-1.3,2-2.6,2c0,0.7-0.8,1.3-2.3,1.6v0.7h-1.4
	c-20.1-3.4-30.2-12.5-30.2-27.4v-1.3c0-15.3,9.9-24.2,29.6-27L149.1,166.9z M115.2,239.8h1v-0.6h-0.3L115.2,239.8z M115.9,236.6h1.6
	v-0.7h-1L115.9,236.6z M116.5,244.5v0.3h0.7v-1L116.5,244.5z M118.8,234.6l-0.3,0.3v0.7h1v-0.3L118.8,234.6z M119.1,179.3l0.7,0.7
	h0.3v-0.7H119.1z M120.4,206.6l1,1l0.3-1l-0.3-0.3L120.4,206.6z M120.4,237.3v1.3h0.7v-1.3H120.4z M122.1,245.1l0.3,2h0.7v-0.3
	l-0.3-1.6H122.1z M122.7,212.3l0.7,0.6h0.7v-0.6H122.7z M123.4,237.3l0.7,0.6h1l-0.3-1.3L123.4,237.3z M123.7,233.3l0.6,0.6l0.7-0.6
	v-0.7h-0.7L123.7,233.3z M124.3,252.7v0.3h1.4l-0.3-0.3v-0.3L124.3,252.7z M125,207v1.3l0.7,0.7v-2H125z M127,242.5v0.7l0.7,1.3h0.7
	v-0.6l-0.7-1.4H127z M127.7,180v0.6c1.1,0,1.6,0.2,1.6,0.7h0.7l-1-1.3H127.7z M128,235.3v0.6c0.9,0,1.3,0.5,1.3,1.4h1v-0.7l-0.7-0.7
	h-0.3l0.3-0.3v-1h-1L128,235.3z M128.6,210.2l-0.3,0.3v0.3h1.6v-0.3L128.6,210.2z M128.6,174.1l0.7,0.6h0.3l0.7-0.6v-0.7
	L128.6,174.1z M129,200.1v0.3l3.9,0.7l-2.2-1.4L129,200.1z M129.3,258.6v0.3c1.5,0,2.3,0.7,2.3,2h0.7v-0.7l0.3-0.3l-0.3-0.3l-2.6-1
	H129.3z M131.3,245.1c0,0.7-0.3,1-1,1v0.6l1.6-1.6H131.3z M131.6,252.4h0.3l0.3-0.3h0.3l1,1h0.3v-0.3l-0.3-1h-1.3L131.6,252.4z
	 M131.9,255l0.7,0.7h0.3l-0.6-0.7H131.9z M133.9,247.8c0,0.4,0.4,0.6,1.3,0.6l-0.3,0.3v0.3l1.3,0.7v-0.3l-1-1.6H133.9z M134.6,256.9
	l-0.3,0.3v1l0.3-0.3h0.3l1.3,0.3L134.6,256.9z M135.5,202.4v0.7h1v-0.7H135.5z M137.9,210.2l-0.3,0.3v0.3h1.4v-0.3L137.9,210.2z
	 M138.2,253v1l1.3,1h0.7v-1.3h-0.3l-0.3,0.3c-0.6,0-1-0.3-1-1H138.2z M140.5,262.9v0.3l-0.3,0.3v0.3l-1-0.3v-0.3L140.5,262.9z
	 M140.8,258.9v1.4h0.6v-0.7L140.8,258.9z M141.8,252.7v0.3l0.7,0.7h0.3l1-0.3V253l-1.6-0.3H141.8z M141.8,263.5h1.4v0.7h-0.3l-1-0.3
	V263.5z M145.5,217.5l-2.6-0.7l1.3,2h1.4c0-0.5,0.4-0.9,1.3-1v-0.7l1-0.6l-0.3-1L145.5,217.5z M148,222.1h2.3l1,1v1.7
	c-4.2-0.8-6.2-1.4-6.2-2h2.9V222.1z M145.5,258.3v1.3l0.6,0.7l0.3-0.3h0.7v0.7h0.3v-0.7L145.5,258.3z M146.1,249.4v1h1v-0.3
	l-0.7-0.7H146.1z M147.1,213.6v1.6h0.3v-1.6H147.1z M150.7,205.7v0.3l0.3,1.6c-0.5,0-0.9,0.7-1.3,2H148l0.3,1.3l-0.3,1
	c2.2-1.6,3.3-3.3,3.3-5v-1.3H150.7z M149.7,220.2h1l1,1v1h-0.3l-1.6-0.7V220.2z M153,166.9c9.5,0,17.9,2.7,25.3,8.2
	c3.5,3.6,5.3,6,5.3,7.3c1.1,0,2.5,4.3,4.2,12.8v1l-11.1,1.4v-0.3l-9.2,1c-0.9-5.3-2.4-8.8-4.6-10.5c-1.8-1.5-5.2-2.7-10.2-3.6v-0.7
	l0.3-2l-0.3-3.3v-10.5l0.3-0.3V166.9z M161.5,244.8c1.4,0,2.7,0.5,3.9,1.6c2.2,0,3.3,0.8,3.3,2.3l1,0.3l0.3-0.3l0.7,1l-0.3,0.3v0.3
	c1.3,1,2,1.9,2,2.6h0.6c0-0.9,0.9-1.4,2.6-1.6l0.3,0.3l-0.3,0.3v0.6l0.3,0.3c-0.1,1.1-0.4,1.7-1,1.7v1.3c0,1.1-0.6,1.6-1.7,1.6
	c0,0.5,0.6,0.8,1.7,1v-0.3l0.3-0.3h0.3v-2.3h0.7v-0.3L176,255c0.1-1.1,0.9-1.6,2.3-1.6c0.4,1.5,0.8,2.3,1.3,2.3v0.3
	c-4.5,3.5-8,5.2-10.5,5.2v-0.6l-3.6,0.6V261l0.3-1h-0.3l-1,0.3v0.3l0.6,1v0.7c0,1-4.1,1.6-12.2,2l-0.3-0.3v-3.9l0.3-0.3v-0.3
	l1.6,0.3h0.7c0.5,0,0.7-0.5,0.7-1.6l1-1v-0.6h-0.3l-0.3,0.3H156c0-1.1-0.5-2.4-1.4-4l0.3-1l-2.3-2v-2c0-0.5,0.5-0.8,1.6-1l1.7,0.3
	c0-0.9,1.1-1.3,3.3-1.3v2H156l1,2h0.3v-0.7h2.6l-0.3-0.3v-0.3h0.7l1,0.7l0.3-0.3l0.3,2h0.6v-1l-0.3-1.6l0.3-0.3
	c-0.6,0-1.1-0.5-1.3-1.6h-1v-0.3L161.5,244.8z M152.7,251.4h0.7l0.3,1l-0.3,1h-0.7V251.4z M153.7,254l1.6,0.3v2.6h-2l-0.7-0.6v-1.6
	C152.7,254.3,153,254,153.7,254z M154.6,262.9v0.3l2.3,0.3l-0.3-1L154.6,262.9z M156.6,260.6v1.6l1.6-0.7
	C158.2,261.1,157.7,260.7,156.6,260.6z M156.9,212.5h1.3v-0.6h-0.6L156.9,212.5z M158,218.2l-0.3,0.3v0.3h1L158,218.2z M160.5,214.9
	l-0.6,0.7v0.7h1v-1.4H160.5z M160.3,255.7c0.3,0.9,0.6,1.3,1,1.3h0.7v-0.3l-1-1H160.3z M161.2,169.5v0.3l1,0.3v-0.6H161.2z
	 M164.2,247.4l0.3,1l0.6-0.6v-1h-0.3L164.2,247.4z M165.5,250.4v0.6h1.6l-0.6-0.6H165.5z M166.2,223.4l-0.3,1h0.7l0.6-0.7l-0.3-0.3
	H166.2z M167.1,254.7v1.6l2.3-0.3v-0.3c-1.1,0-1.6-0.3-1.6-1H167.1z M175.1,212.9l0.6,1.6l-1.3,0.7l-0.3-0.3h-1l-0.6,0.7v0.3l0.6,1
	v1.4l-0.6,1.3h-1.6l-1-0.7v1.4h-2.3v0.3l1.6,0.6l1-1h0.3l1,0.7c0.2-0.9,0.9-1.4,2-1.4v1.6h-1v1l1.3,1.3l0.7-0.6v-2.3l0.7-0.7h0.3
	l1,0.3v-2.3H174v-0.3l0.3-1.6h0.3l1.6,0.3c0-0.9,0.2-1.4,0.7-1.4C176.8,214.1,176.2,213.5,175.1,212.9z M168.1,171.8l1.3-1h-0.3
	L168.1,171.8z M168.1,238.5v0.3c0,0.6,0.8,1,2.3,1c0,0.9,0.2,1.4,0.6,1.4h0.7l0.7-0.7l-3.7-2H168.1z M169.4,259.6h2v-0.7l-0.6-0.6
	h-0.3L169.4,259.6z M170.8,254.4c0,0.6-0.3,1-1,1v0.3h1.3l0.3-1.3H170.8z M170.8,236.6l0.6,0.7h0.3l-0.7-0.7H170.8z M178,230.7v0.7
	h-1.6c-0.4,0.4-1.7,0.7-3.9,1l-0.3-0.3v0.7h3c0,1.3,0.2,2,0.6,2h0.7l-0.7-1v-0.3l0.7-0.7h2.3l1,0.7V232l-0.3-0.3v-0.3l0.6-0.7H178z
	 M172.4,182.7v0.6h1.3v-0.6H172.4z M174.7,223.7c0,1.1-0.6,1.6-1.7,1.6v1h0.3l3-2.3L174.7,223.7z M173,241.9v0.6l1.4,0.7h0.3v-0.7
	L173,241.9z M176.7,179.3v0.7h-2v0.6h1.6l1.6-0.3l0.7,1l1-0.3v-1l-0.6-0.7H176.7z M175.1,239.8v0.3c0,0.4,0.7,1,2,1.7v-1.4
	c-1.1,0-1.7-0.2-1.7-0.7H175.1z M176,237.3v0.6h1.6v-2c-0.4,0-0.6,0.5-0.6,1.4H176z M177,217.2l-0.3,1h1v-1H177z M176.7,250.7h1.3
	v1.4l-1,0.3l-0.3-0.3V250.7z M177.3,220.8v0.6l1.4,0.3v-0.7L177.3,220.8z M177.3,226.7v0.6h1.7l-0.7-0.6H177.3z M177.6,238.5v1.3
	h0.7v-1.3H177.6z M177.6,247.8v0.3h0.7v0.3l1.6-1.3c1.1,0,1.6-0.5,1.6-1.6h0.3c0-0.7-0.4-1-1.3-1v-0.6h-0.3c-0.5,0-0.7,1.1-0.7,3.3
	L177.6,247.8z M178.7,243.2v0.3l1,0.3v-0.7H178.7z M179,219.5v0.7l2-0.3v-0.3H179z M179.3,222.1l0.6,0.7h0.3l-0.7-0.7H179.3z
	 M180.3,233.9l0.7,1.4l1-1.4H180.3z M180.6,239.2v0.6l0.7,0.7h0.3v-1.3H180.6z M180.6,250.4v0.6h1v-0.6H180.6z M181,224.8v0.6
	l1.3,0.3h1v-0.3C182.2,225.4,181.5,225.2,181,224.8z M181.6,240.9v1.3h0.3l0.7-0.6L181.6,240.9z M183.6,217.5h0.3
	c0.9,0.5,1.4,1.1,1.4,2h-1.6l-0.7-0.7v-0.6L183.6,217.5z M183.3,232.6v0.7h0.3l0.6-0.7H183.3z M184.6,187.2v1.7l1,0.6v-0.3l-0.7-2
	H184.6z"/>
</svg>
